<?xml version="1.0" encoding="utf-8"?>
<!-- Generator: Adobe Illustrator 16.0.0, SVG Export Plug-In . SVG Version: 6.00 Build 0)  -->
<!DOCTYPE svg PUBLIC "-//W3C//DTD SVG 1.1//EN" "http://www.w3.org/Graphics/SVG/1.1/DTD/svg11.dtd">
<svg version="1.1" id="Layer_1" xmlns="http://www.w3.org/2000/svg" xmlns:xlink="http://www.w3.org/1999/xlink" x="0px" y="0px"
	 width="80px" height="16px" viewBox="0 0 80 16" enable-background="new 0 0 80 16" xml:space="preserve">
<g>
	<g>
		<path fill="#FCFCFC" d="M14.927,4.019c-0.454-0.771-1.011-1.439-1.67-2.007c-0.379-0.326-0.792-0.619-1.24-0.879
			C10.79,0.425,9.452,0.071,8,0.071c-1.451,0-2.79,0.354-4.016,1.062c-1.226,0.71-2.196,1.671-2.911,2.886C0.357,5.235,0,6.561,0,8
			c0,1.439,0.357,2.766,1.073,3.979c0.715,1.215,1.686,2.181,2.911,2.89C5.21,15.573,6.549,15.93,8,15.93
			c1.452,0,2.791-0.354,4.017-1.063c1.225-0.709,2.196-1.674,2.911-2.887C15.643,10.766,16,9.438,16,8
			c0-1.253-0.271-2.421-0.814-3.505C15.105,4.334,15.019,4.176,14.927,4.019z"/>
	</g>
	<g>
		<path fill="#FCFCFC" d="M13.485,4.939C12.92,4.005,12.15,3.267,11.18,2.721C10.209,2.177,9.15,1.904,8,1.904
			c-1.149,0-2.209,0.272-3.179,0.816C3.85,3.267,3.083,4.005,2.516,4.939C1.948,5.873,1.666,6.894,1.666,8
			c0,1.105,0.283,2.125,0.85,3.059c0.567,0.935,1.334,1.676,2.305,2.221c0.971,0.544,2.03,0.816,3.179,0.816
			c1.15,0,2.209-0.271,3.18-0.816c0.971-0.545,1.738-1.286,2.306-2.221c0.565-0.935,0.849-1.955,0.849-3.059
			C14.334,6.894,14.051,5.873,13.485,4.939z"/>
	</g>
</g>
<rect x="16" y="2.529" fill="#FCFCFC" width="16.125" height="11.346"/>
<rect x="31.397" y="6.923" transform="matrix(0.7877 0.6161 -0.6161 0.7877 13.3273 -23.2298)" fill="#FCFCFC" width="17.938" height="1.596"/>
</svg>
