<?xml version="1.0" encoding="utf-8"?>
<!-- Generator: Adobe Illustrator 16.0.0, SVG Export Plug-In . SVG Version: 6.00 Build 0)  -->
<!DOCTYPE svg PUBLIC "-//W3C//DTD SVG 1.1//EN" "http://www.w3.org/Graphics/SVG/1.1/DTD/svg11.dtd">
<svg version="1.1" id="Layer_1" xmlns="http://www.w3.org/2000/svg" xmlns:xlink="http://www.w3.org/1999/xlink" x="0px" y="0px"
	 width="80px" height="16px" viewBox="0 0 80 16" enable-background="new 0 0 80 16" xml:space="preserve">
<g>
	<path fill="#FCFCFC" d="M14.927,4.019c-0.454-0.771-1.011-1.439-1.67-2.007c-0.379-0.326-0.792-0.619-1.24-0.879
		C10.79,0.425,9.452,0.071,8,0.071c-1.451,0-2.79,0.354-4.016,1.062c-1.226,0.71-2.196,1.671-2.911,2.886C0.357,5.235,0,6.561,0,8
		c0,1.439,0.357,2.766,1.073,3.979c0.715,1.215,1.686,2.18,2.911,2.889C5.21,15.573,6.549,15.93,8,15.93
		c1.452,0,2.791-0.354,4.017-1.063c1.225-0.709,2.196-1.674,2.911-2.887C15.643,10.766,16,9.438,16,8
		c0-1.253-0.271-2.421-0.814-3.505C15.105,4.334,15.019,4.176,14.927,4.019z"/>
</g>
<g>
	<path fill="#FCFCFC" d="M45.378,4.796c-0.566-0.934-1.335-1.673-2.306-2.219c-0.971-0.544-2.029-0.816-3.18-0.816
		c-1.149,0-2.209,0.272-3.179,0.816c-0.971,0.546-1.738,1.285-2.305,2.219c-0.567,0.933-0.85,1.954-0.85,3.06
		c0,1.105,0.283,2.125,0.85,3.059s1.334,1.676,2.305,2.221c0.971,0.543,2.03,0.816,3.179,0.816c1.15,0,2.209-0.271,3.18-0.816
		s1.738-1.287,2.306-2.221c0.565-0.934,0.848-1.955,0.848-3.059C46.226,6.75,45.943,5.729,45.378,4.796z"/>
</g>
<g>
	<path fill="#FCFCFC" d="M28.75,5.672c-0.446-0.711-1.051-1.273-1.814-1.688c-0.765-0.414-1.597-0.621-2.502-0.621
		s-1.738,0.207-2.502,0.621c-0.765,0.416-1.368,0.978-1.814,1.688C19.671,6.382,19.448,7.158,19.448,8
		c0,0.842,0.223,1.618,0.668,2.327c0.446,0.711,1.05,1.275,1.814,1.689s1.597,0.621,2.502,0.621s1.738-0.207,2.502-0.621
		c0.766-0.414,1.368-0.979,1.814-1.689C29.195,9.617,29.417,8.84,29.417,8C29.417,7.158,29.195,6.382,28.75,5.672z"/>
</g>
<g>
	<g>
		<path fill="#FCFCFC" d="M57.315,5.766c-0.291-0.48-0.686-0.86-1.184-1.142c-0.498-0.28-1.041-0.42-1.631-0.42
			c-0.591,0-1.134,0.14-1.632,0.42c-0.499,0.281-0.893,0.661-1.183,1.142c-0.291,0.48-0.437,1.005-0.437,1.575
			s0.146,1.094,0.437,1.574c0.29,0.48,0.685,0.861,1.183,1.142s1.041,0.421,1.632,0.421c0.59,0,1.133-0.141,1.631-0.421
			c0.499-0.28,0.893-0.661,1.184-1.142c0.29-0.48,0.435-1.006,0.435-1.574C57.75,6.771,57.605,6.246,57.315,5.766z"/>
	</g>
</g>
</svg>
