<?xml version="1.0" encoding="utf-8"?>
<!-- Generator: Adobe Illustrator 16.0.0, SVG Export Plug-In . SVG Version: 6.00 Build 0)  -->
<!DOCTYPE svg PUBLIC "-//W3C//DTD SVG 1.1//EN" "http://www.w3.org/Graphics/SVG/1.1/DTD/svg11.dtd">
<svg version="1.1" id="Layer_1" xmlns="http://www.w3.org/2000/svg" xmlns:xlink="http://www.w3.org/1999/xlink" x="0px" y="0px"
	 width="80px" height="16px" viewBox="0 0 80 16" enable-background="new 0 0 80 16" xml:space="preserve">
<g transform="translate(48, 0)">
	<path fill="#FFFFFF" d="M-37,3.038h-1c-0.6,0-1,0.4-1,1s0.4,1,1,1h1c1.7,0,3,1.3,3,3c0,1.701-1.3,3-3,3h-1c-0.6,0-1,0.399-1,1
		s0.4,1,1,1h1c2.8,0,5-2.199,5-5C-32,5.238-34.2,3.038-37,3.038z"/>
	<path fill="#FFFFFF" d="M-42,11.037h-1c-1.7,0-3-1.299-3-3c0-1.7,1.3-3,3-3h1c0.6,0,1-0.4,1-1s-0.4-1-1-1h-1c-2.8,0-5,2.2-5,5
		c0,2.8,2.2,5,5,5h1c0.6,0,1-0.4,1-1S-41.4,11.037-42,11.037z"/>
	<path fill="#FFFFFF" d="M-44,8.038c0,0.599,0.4,1,1,1h6c0.6,0,1-0.399,1-1c0-0.6-0.4-1-1-1h-6C-43.6,7.038-44,7.438-44,8.038z"/>
</g>
<g>
	<path fill="#FFFFFF" d="M35.602,15.922c-0.04,0-0.08-0.008-0.117-0.027c-0.078-0.041-0.126-0.115-0.126-0.204v-3.318
		c-2.13-1.062-3.299-2.918-3.299-5.246c0-3.596,3.45-6.307,8.024-6.307c4.573,0,8.023,2.711,8.023,6.307
		c0,3.595-3.45,6.308-8.023,6.308c-0.151,0-0.298-0.012-0.445-0.019h-0.011l-3.893,2.468C35.695,15.909,35.648,15.922,35.602,15.922
		z M40.226,2.531c-3.186,0-5.587,1.916-5.587,4.457c0,1.181,0.407,2.789,2.344,3.734c0.061,0.027,0.1,0.09,0.1,0.158v2.313
		l2.656-1.734c0.033-0.023,0.072-0.033,0.109-0.027l0.067,0.004c0.103,0.007,0.205,0.011,0.31,0.011
		c3.185,0,5.587-1.917,5.587-4.457C45.813,4.445,43.409,2.531,40.226,2.531z"/>
</g>
<g>
	<g>
		<g>
			<path fill="none" d="M63.938,5.775L61.02,2.573c-0.137-0.15-0.352-0.24-0.58-0.24h-1.195v0.599V3.53v3.79
				c0,0.332-0.325,0.6-0.727,0.6H51.74c-0.4,0-0.727-0.268-0.727-0.6V3.53V2.932V2.333h-2.179c-0.399,0-0.728,0.268-0.728,0.599
				V14.9c0,0.33,0.324,0.599,0.728,0.599h2.179V14.9V14.3v-0.6v-2.394c0-0.332,0.324-0.598,0.727-0.598h8.714
				c0.399,0,0.726,0.266,0.726,0.598V13.7v0.6V14.9v0.599h2.178c0.401,0,0.729-0.269,0.729-0.599V6.134
				C64.083,6.004,64.031,5.879,63.938,5.775z"/>
		</g>
	</g>
	<g>
		<g>
			<polygon fill="none" points="52.466,2.333 52.466,2.96 52.466,3.587 52.466,6.931 57.79,6.931 57.79,3.587 57.79,2.96 
				57.79,2.333 			"/>
		</g>
	</g>
</g>
<g>
	<g>
		<path fill="none" d="M72.342,11.434c0.149,0.063,0.325,0.043,0.449-0.05l6.665-4.957c0.097-0.071,0.151-0.179,0.151-0.291
			c0-0.114-0.055-0.219-0.155-0.291l-6.661-4.938c-0.127-0.093-0.3-0.115-0.449-0.05c-0.146,0.062-0.24,0.195-0.24,0.344v2.593
			c-7.641,0.248-7.609,5.453-7.596,7.974v0.301c0,0.176,0.127,0.322,0.314,0.365c0.033,0.01,0.072,0.015,0.104,0.015
			c0.149,0,0.289-0.07,0.369-0.191c2.257-3.567,4.111-3.741,6.809-3.752v2.587C72.102,11.236,72.195,11.368,72.342,11.434z
			 M65.357,10.73c0.039-1.101,0.199-2.413,0.869-3.521c1.062-1.766,3.121-2.64,6.299-2.667c0.229-0.003,0.416-0.17,0.416-0.378
			V2.003l5.578,4.132l-5.574,4.146v-2.16c0-0.098-0.043-0.198-0.123-0.269c-0.079-0.071-0.186-0.111-0.301-0.111
			C69.566,7.744,67.527,7.902,65.357,10.73z"/>
		<path fill="none" d="M79.523,15.622V8.621c0-0.211-0.188-0.382-0.424-0.382c-0.236,0-0.426,0.171-0.426,0.382v6.619H65.352v-1.289
			c0-0.21-0.188-0.381-0.426-0.381c-0.236,0-0.424,0.171-0.424,0.381v1.668c0,0.21,0.188,0.381,0.424,0.381h14.176
			C79.336,16,79.523,15.829,79.523,15.622z"/>
	</g>
</g>
<g transform="translate(16, 0)">
	<path fill="#FFFFFF" d="M15,16.037H1c-0.6,0-1-0.4-1-1v-14c0-0.6,0.4-1,1-1h14c0.6,0,1,0.4,1,1v14C16,15.637,15.6,16.037,15,16.037
		z M2,14.037h12v-12H2V14.037z"/>
	<path fill="#FFFFFF" d="M6,4.037c0.6,0,1,0.4,1,1s-0.4,1-1,1s-1-0.4-1-1S5.4,4.037,6,4.037z"/>
	<polygon fill="#FFFFFF" points="3,12.037 5,8.037 7,10.037 10,6.037 13,12.037 	"/>
</g>
</svg>
