<?xml version="1.0" encoding="utf-8"?>
<!-- Generator: Adobe Illustrator 16.0.0, SVG Export Plug-In . SVG Version: 6.00 Build 0)  -->
<!DOCTYPE svg PUBLIC "-//W3C//DTD SVG 1.1//EN" "http://www.w3.org/Graphics/SVG/1.1/DTD/svg11.dtd">
<svg version="1.1" id="Layer_1" xmlns="http://www.w3.org/2000/svg" xmlns:xlink="http://www.w3.org/1999/xlink" x="0px" y="0px"
	 width="80px" height="16px" viewBox="0 0 80 16" enable-background="new 0 0 80 16" xml:space="preserve">
<g>
	<path fill="#020202" d="M14.927,4.019c-0.715-1.214-1.686-2.176-2.911-2.886C10.79,0.425,9.452,0.071,8,0.071
		c-1.451,0-2.79,0.354-4.016,1.062c-1.226,0.71-2.196,1.671-2.911,2.886C0.357,5.235,0,6.561,0,8c0,1.439,0.357,2.766,1.073,3.979
		c0.715,1.215,1.686,2.179,2.911,2.888C5.21,15.573,6.549,15.93,8,15.93c1.452,0,2.791-0.354,4.017-1.063
		c1.225-0.709,2.196-1.674,2.911-2.887C15.643,10.766,16,9.438,16,8C16,6.561,15.643,5.235,14.927,4.019z"/>
</g>
<g>
	<path fill="#F9DB28" d="M30.929,4.02c-0.715-1.215-1.687-2.176-2.912-2.886c-1.227-0.708-2.564-1.062-4.016-1.062
		s-2.791,0.354-4.016,1.062c-1.226,0.71-2.196,1.671-2.912,2.886C16.357,5.234,16,6.561,16,8c0,1.439,0.357,2.766,1.073,3.979
		c0.716,1.215,1.686,2.179,2.912,2.888c1.226,0.708,2.564,1.063,4.016,1.063s2.79-0.354,4.016-1.063
		c1.225-0.709,2.196-1.673,2.912-2.888C31.644,10.766,32,9.438,32,8C32,6.561,31.644,5.234,30.929,4.02z"/>
</g>
<g>
	<path fill="#FC0303" d="M46.93,4.02c-0.717-1.215-1.688-2.176-2.912-2.886c-1.227-0.708-2.563-1.062-4.017-1.062
		s-2.79,0.354-4.016,1.062c-1.227,0.71-2.196,1.671-2.912,2.886C32.357,5.235,32,6.561,32,8c0,1.439,0.357,2.766,1.073,3.979
		c0.716,1.215,1.686,2.179,2.912,2.888c1.226,0.708,2.564,1.063,4.016,1.063s2.79-0.354,4.017-1.063s2.195-1.673,2.912-2.888
		C47.645,10.766,48,9.438,48,8C48,6.561,47.645,5.234,46.93,4.02z"/>
</g>
<g>
	<g>
		<path fill="#2A9E04" d="M62.93,4.02c-0.717-1.215-1.688-2.176-2.912-2.886c-1.227-0.708-2.563-1.062-4.016-1.062
			s-2.791,0.354-4.016,1.062c-1.229,0.71-2.197,1.671-2.912,2.886C48.357,5.234,48,6.56,48,8c0,1.441,0.357,2.766,1.074,3.98
			c0.715,1.213,1.686,2.176,2.912,2.885c1.225,0.709,2.563,1.064,4.016,1.064s2.789-0.355,4.016-1.064s2.195-1.672,2.912-2.885
			C63.645,10.766,64,9.438,64,8C64,6.56,63.645,5.234,62.93,4.02z"/>
	</g>
</g>
<g>
	<g>
		<path fill="#081AC1" d="M78.93,4.019c-0.717-1.214-1.688-2.176-2.912-2.886c-1.227-0.708-2.563-1.062-4.016-1.062
			s-2.791,0.354-4.016,1.062c-1.229,0.71-2.197,1.671-2.912,2.886C64.357,5.233,64,6.56,64,7.999c0,1.441,0.357,2.766,1.074,3.98
			c0.715,1.213,1.686,2.176,2.912,2.885c1.225,0.709,2.563,1.064,4.016,1.064s2.789-0.355,4.016-1.064s2.195-1.672,2.912-2.885
			C79.645,10.765,80,9.437,80,7.999C80,6.56,79.645,5.233,78.93,4.019z"/>
	</g>
</g>
</svg>
