<?xml version="1.0" encoding="utf-8"?>
<!-- Generator: Adobe Illustrator 16.0.0, SVG Export Plug-In . SVG Version: 6.00 Build 0)  -->
<!DOCTYPE svg PUBLIC "-//W3C//DTD SVG 1.1//EN" "http://www.w3.org/Graphics/SVG/1.1/DTD/svg11.dtd">
<svg version="1.1" id="Layer_1" xmlns="http://www.w3.org/2000/svg" xmlns:xlink="http://www.w3.org/1999/xlink" x="0px" y="0px"
	 width="512px" height="512px" viewBox="0 0 512 512" enable-background="new 0 0 512 512" xml:space="preserve">
<g>
	<g>
		<path fill="#FFFFFF" d="M68.353,410.006H19.414c-10.467,0-18.951,8.484-18.951,18.95c0,10.465,8.484,18.951,18.951,18.951h48.94
			c10.468,0,18.952-8.486,18.952-18.951C87.304,418.491,78.819,410.006,68.353,410.006z"/>
	</g>
</g>
<g>
	<g>
		<path fill="#FFFFFF" d="M106.276,467.763c-3.136-9.984-13.771-15.542-23.757-12.405l-46.692,14.655
			c-9.986,3.136-15.541,13.771-12.406,23.759c1.567,4.991,5.009,8.878,9.309,11.123c4.298,2.245,9.456,2.85,14.447,1.281
			l46.692-14.655C103.856,488.385,109.41,477.75,106.276,467.763z"/>
	</g>
</g>
<g>
	<g>
		<path fill="#FFFFFF" d="M484.431,424.963H262.965l226.698-226.688c9.852-9.852,9.853-25.881,0.001-35.733L334.522,7.388
			c-9.853-9.851-25.882-9.851-35.734,0l-247.99,247.99c-14.318,14.318-22.203,33.354-22.203,53.603
			c0,20.246,0.972,47.201,15.291,61.52l74.021,73.414c8.351,8.351,25.784,24.586,37.595,24.586h330
			c6.978,0,11.563-23.925,11.563-30.902C497.065,430.621,491.408,424.963,484.431,424.963z M177.981,384.992
			c-4.049,0-7.856-1.578-10.721-4.441l-59.759-59.759c-15.763-15.763-15.763-41.411,0-57.175l32.445-32.445L246.614,337.84
			c1.974,1.975,4.56,2.961,7.147,2.961c2.586,0,5.173-0.986,7.146-2.961c3.947-3.946,3.948-10.346,0.002-14.293L154.24,216.878
			L305.893,65.225l124.113,124.125L234.352,384.992H177.981z"/>
	</g>
</g>
</svg>
