<?xml version="1.0" encoding="utf-8"?>
<!-- Generator: Adobe Illustrator 16.0.0, SVG Export Plug-In . SVG Version: 6.00 Build 0)  -->
<!DOCTYPE svg PUBLIC "-//W3C//DTD SVG 1.1//EN" "http://www.w3.org/Graphics/SVG/1.1/DTD/svg11.dtd">
<svg version="1.1" id="Capa_1" xmlns="http://www.w3.org/2000/svg" xmlns:xlink="http://www.w3.org/1999/xlink" x="0px" y="0px"
	 width="512px" height="512px" viewBox="0 0 512 512" enable-background="new 0 0 512 512" xml:space="preserve">
<path fill="#FFFFFF" d="M406.525,173.668c0,5.36-4.79,9.704-10.697,9.704H128.172c-5.907,0-10.697-4.344-10.697-9.704
	c0,0,0-26.059,0-34.746c0-5.359,4.79-9.704,10.697-9.704c66.914,0,267.655,0,267.655,0c5.907,0,10.697,4.345,10.697,9.704V173.668z
	 M117.475,276.711c0,4.291,4.677,7.77,10.446,7.77h268.152c5.769,0,10.446-3.479,10.446-7.77v-10.442
	c0-4.29-4.678-7.769-10.446-7.769H127.921c-5.769,0-10.446,3.479-10.446,7.769V276.711z M406.525,364.96
	c0,2.842-3.84,5.146-8.577,5.146H126.052c-4.736,0-8.577-2.305-8.577-5.146l0,0c0-2.843,3.84-5.146,8.577-5.146h271.896
	C402.685,359.813,406.525,362.117,406.525,364.96L406.525,364.96z"/>
</svg>
